<?xml version="1.0" standalone="yes"?>

<svg version="1.1" viewBox="0.0 0.0 1066.0 800.0" fill="none" stroke="none" stroke-linecap="square" stroke-miterlimit="10" xmlns="http://www.w3.org/2000/svg" xmlns:xlink="http://www.w3.org/1999/xlink"><clipPath id="g539211100_09.0"><path d="m0 0l1066.0 0l0 800.0l-1066.0 0l0 -800.0z" clip-rule="nonzero"></path></clipPath><g clip-path="url(#g539211100_09.0)"><path fill="#ffffff" d="m0 0l1066.6666 0l0 800.0l-1066.6666 0z" fill-rule="nonzero"></path><path fill="#000000" fill-opacity="0.0" d="m31.994751 32.0l1002.6771 0l0 96.0l-1002.6771 0z" fill-rule="nonzero"></path><path fill="#000000" d="m401.4981 82.50396l5.09375 -0.4375q0.359375 3.046875 1.671875 5.015625q1.328125 1.96875 4.109375 3.1875q2.78125 1.203125 6.265625 1.203125q3.09375 0 5.453125 -0.921875q2.375 -0.921875 3.53125 -2.515625q1.15625 -1.609375 1.15625 -3.5q0 -1.921875 -1.125 -3.34375q-1.109375 -1.4375 -3.671875 -2.421875q-1.640625 -0.640625 -7.265625 -1.984375q-5.625 -1.34375 -7.875 -2.546875q-2.921875 -1.53125 -4.359375 -3.796875q-1.421875 -2.265625 -1.421875 -5.078125q0 -3.0937538 1.75 -5.781254q1.75 -2.6875 5.109375 -4.078125q3.375 -1.390625 7.5 -1.390625q4.53125 0 8.0 1.46875q3.46875 1.453125 5.328125 4.296875q1.859375 2.84375 2.0 6.421879l-5.171875 0.390625q-0.421875 -3.8593788 -2.828125 -5.828129q-2.40625 -1.984375 -7.109375 -1.984375q-4.890625 0 -7.140625 1.796875q-2.234375 1.796875 -2.234375 4.328129q0 2.1875 1.578125 3.609375q1.5625 1.421875 8.140625 2.921875q6.59375 1.484375 9.03125 2.59375q3.5625 1.640625 5.265625 4.15625q1.703125 2.515625 1.703125 5.8125q0 3.25 -1.875 6.140625q-1.859375 2.875 -5.359375 4.484375q-3.484375 1.5937424 -7.859375 1.5937424q-5.53125 0 -9.28125 -1.6093674q-3.734375 -1.625 -5.875 -4.859375q-2.125 -3.25 -2.234375 -7.34375zm59.357056 3.59375l5.1875 0.640625q-1.234375 4.53125 -4.546875 7.046875q-3.3125 2.4999924 -8.453125 2.4999924q-6.484375 0 -10.28125 -3.9843674q-3.796875 -4.0 -3.796875 -11.21875q0 -7.453125 3.828125 -11.5625q3.84375 -4.125 9.96875 -4.125q5.9375 0 9.6875 4.03125q3.75 4.03125 3.75 11.359375q0 0.4375 -0.015625 1.328125l-22.046875 0q0.28125 4.875 2.75 7.46875q2.484375 2.578125 6.1875 2.578125q2.75 0 4.6875 -1.4375q1.953125 -1.453125 3.09375 -4.625zm-16.4375 -8.109375l16.5 0q-0.328125 -3.71875 -1.890625 -5.59375q-2.390625 -2.890625 -6.203125 -2.890625q-3.453125 0 -5.8125 2.3125q-2.34375 2.3125 -2.59375 6.171875zm46.67804 28.953117l0 -14.468742q-1.15625 1.640625 -3.265625 2.734375q-2.09375 1.0781174 -4.46875 1.0781174q-5.25 0 -9.0625 -4.2031174q-3.796875 -4.203125 -3.796875 -11.53125q0 -4.453125 1.546875 -7.984375q1.546875 -3.53125 4.484375 -5.34375q2.9375 -1.828125 6.4375 -1.828125q5.484375 0 8.625 4.609375l0 -3.953125l4.515625 0l0 40.890617l-5.015625 0zm-15.4375 -26.187492q0 5.703125 2.390625 8.5625q2.390625 2.84375 5.734375 2.84375q3.203125 0 5.5 -2.703125q2.3125 -2.71875 2.3125 -8.265625q0 -5.890625 -2.4375 -8.875q-2.421875 -2.984375 -5.703125 -2.984375q-3.265625 0 -5.53125 2.78125q-2.265625 2.765625 -2.265625 8.640625zm47.599915 14.859375l0 -4.34375q-3.453125 5.0156174 -9.375 5.0156174q-2.609375 0 -4.890625 -0.9999924q-2.265625 -1.015625 -3.375 -2.53125q-1.09375 -1.515625 -1.53125 -3.703125q-0.3125 -1.484375 -0.3125 -4.6875l0 -18.3125l5.015625 0l0 16.390625q0 3.9375 0.3125 5.296875q0.46875 1.96875 2.0 3.109375q1.53125 1.125 3.78125 1.125q2.25 0 4.21875 -1.15625q1.984375 -1.15625 2.796875 -3.140625q0.828125 -2.0 0.828125 -5.78125l0 -15.84375l5.015625 0l0 29.5625l-4.484375 0zm32.49054 -9.515625l5.1875 0.640625q-1.234375 4.53125 -4.546875 7.046875q-3.3125 2.4999924 -8.453125 2.4999924q-6.484375 0 -10.28125 -3.9843674q-3.796875 -4.0 -3.796875 -11.21875q0 -7.453125 3.828125 -11.5625q3.84375 -4.125 9.96875 -4.125q5.9375 0 9.6875 4.03125q3.75 4.03125 3.75 11.359375q0 0.4375 -0.015625 1.328125l-22.046875 0q0.28125 4.875 2.75 7.46875q2.484375 2.578125 6.1875 2.578125q2.75 0 4.6875 -1.4375q1.953125 -1.453125 3.09375 -4.625zm-16.4375 -8.109375l16.5 0q-0.328125 -3.71875 -1.890625 -5.59375q-2.390625 -2.890625 -6.203125 -2.890625q-3.453125 0 -5.8125 2.3125q-2.34375 2.3125 -2.59375 6.171875zm47.131165 6.796875l4.921875 0.640625q-0.796875 5.09375 -4.125 7.984375q-3.328125 2.8749924 -8.171875 2.8749924q-6.0625 0 -9.75 -3.9687424q-3.6875 -3.96875 -3.6875 -11.375q0 -4.78125 1.578125 -8.375q1.59375 -3.59375 4.828125 -5.375q3.25 -1.796875 7.0625 -1.796875q4.8125 0 7.875 2.4375q3.0625 2.421875 3.921875 6.90625l-4.875 0.75q-0.6875 -2.96875 -2.46875 -4.46875q-1.765625 -1.515625 -4.265625 -1.515625q-3.78125 0 -6.15625 2.71875q-2.359375 2.71875 -2.359375 8.578125q0 5.96875 2.28125 8.671875q2.28125 2.6875 5.953125 2.6875q2.953125 0 4.921875 -1.796875q1.984375 -1.8125 2.515625 -5.578125zm9.171875 -24.218754l0 -5.75l5.015625 0l0 5.75l-5.015625 0zm0 35.04688l0 -29.5625l5.015625 0l0 29.5625l-5.015625 0zm12.604553 0l0 -29.5625l4.515625 0l0 4.203125q3.25 -4.859375 9.40625 -4.859375q2.671875 0 4.90625 0.953125q2.25 0.953125 3.359375 2.515625q1.109375 1.5625 1.5625 3.703125q0.28125 1.390625 0.28125 4.875l0 18.171875l-5.015625 0l0 -17.984375q0 -3.0625 -0.59375 -4.578125q-0.578125 -1.515625 -2.0625 -2.421875q-1.484375 -0.90625 -3.5 -0.90625q-3.1875 0 -5.515625 2.03125q-2.328125 2.03125 -2.328125 7.71875l0 16.140625l-5.015625 0zm30.724915 2.4531174l4.859375 0.71875q0.3125 2.25 1.703125 3.28125q1.859375 1.390625 5.09375 1.390625q3.484375 0 5.375 -1.390625q1.890625 -1.390625 2.5625 -3.890625q0.390625 -1.53125 0.359375 -6.4374924q-3.28125 3.875 -8.1875 3.875q-6.09375 0 -9.4375 -4.390625q-3.328125 -4.40625 -3.328125 -10.5625q0 -4.21875 1.53125 -7.796875q1.53125 -3.578125 4.4375 -5.515625q2.90625 -1.953125 6.828125 -1.953125q5.234375 0 8.625 4.21875l0 -3.5625l4.625 0l0 25.546875q0 6.9062424 -1.40625 9.781242q-1.40625 2.890625 -4.453125 4.5625q-3.046875 1.671875 -7.5 1.671875q-5.296875 0 -8.546875 -2.390625q-3.25 -2.375 -3.140625 -7.15625zm4.140625 -17.765617q0 5.828125 2.3125 8.5q2.3125 2.671875 5.78125 2.671875q3.453125 0 5.796875 -2.65625q2.34375 -2.671875 2.34375 -8.34375q0 -5.421875 -2.421875 -8.171875q-2.40625 -2.765625 -5.796875 -2.765625q-3.34375 0 -5.6875 2.71875q-2.328125 2.703125 -2.328125 8.046875z" fill-rule="nonzero"></path><path fill="#000000" fill-opacity="0.0" d="m31.989502 182.7979l1002.6771 0l0 576.0l-1002.6771 0z" fill-rule="nonzero"></path><path fill="#000000" d="m63.848877 215.2906q-1.09375 5.40625 -4.59375 8.640625q-3.484375 3.21875 -8.234375 3.21875q-4.3125 0 -6.484375 -2.421875q-2.15625 -2.421875 -2.15625 -7.25q0 -4.5625 2.15625 -9.375q2.15625 -4.828125 5.53125 -7.796875q2.25 -1.984375 4.75 -1.984375q1.609375 0 4.21875 1.046875q3.203125 1.265625 3.203125 2.796875q0 0.71875 -0.53125 1.28125q-0.515625 0.5625 -1.265625 0.5625q-0.375 0 -1.078125 -0.4375q-2.6875 -1.640625 -4.546875 -1.640625q-1.3125 0 -2.75 1.375q-0.71875 0.6875 -2.078125 2.5q-4.0625 5.375 -4.0625 11.671875q0 3.296875 1.015625 4.625q1.109375 1.4375 4.078125 1.4375q3.15625 0 5.46875 -1.984375q2.453125 -2.109375 3.421875 -6.03125q-4.875 0.25 -8.359375 1.875q-0.40625 0.203125 -0.78125 0.203125q-0.78125 0 -1.296875 -0.609375q-0.46875 -0.53125 -0.46875 -1.265625q0 -0.953125 0.9375 -1.546875q3.796875 -2.3125 13.09375 -2.3125q0.75 0 1.25 0.515625q0.515625 0.5 0.515625 1.28125q0 1.140625 -0.953125 1.625zm11.957642 11.453125q-3.96875 0 -6.4375 -1.984375q-2.6875 -2.203125 -2.6875 -6.15625q0 -4.578125 2.21875 -7.671875q2.40625 -3.375 6.421875 -3.375q2.921875 0 4.765625 0.984375q2.265625 1.21875 2.265625 3.734375q0 1.75 -1.984375 3.203125q-0.875 0.625 -3.71875 1.96875l-6.71875 3.171875q0.984375 1.46875 2.453125 2.203125q1.46875 0.734375 3.421875 0.734375q1.203125 0 2.84375 -0.453125q2.078125 -0.578125 2.671875 -1.515625q0.59375 -0.953125 1.28125 -0.953125q0.625 0 1.09375 0.46875q0.484375 0.46875 0.484375 1.078125q0 1.953125 -3.140625 3.359375q-2.6875 1.203125 -5.234375 1.203125zm-0.484375 -16.015625q-2.140625 0 -3.5625 1.65625q-1.421875 1.65625 -2.125 5.0l5.390625 -2.5625q3.1875 -1.546875 4.546875 -2.6875q-1.515625 -1.40625 -4.25 -1.40625zm25.224411 16.453125q-1.5 0 -1.703125 -1.65625l-0.484375 -3.84375q-0.25 -2.0625 -0.25 -3.859375q0 -0.484375 0.0625 -1.65625q0.0625 -1.1875 0.0625 -1.671875q0 -3.796875 -1.40625 -3.796875q-1.96875 0 -3.765625 2.328125q-1.609375 2.125 -2.53125 5.375q-0.03125 0.6875 -0.15625 1.734375q-0.109375 0.875 -0.109375 1.703125q0 0.53125 0.109375 1.59375q0.109375 1.046875 0.109375 1.5625q0 0.796875 -0.484375 1.28125q-0.484375 0.5 -1.25 0.5q-0.765625 0 -1.25 -0.5q-0.46875 -0.484375 -0.46875 -1.28125q0 -0.515625 -0.109375 -1.5625q-0.109375 -1.0625 -0.109375 -1.59375q0 -1.8125 0.25 -5.015625q0.25 -3.21875 0.25 -5.03125q0 -0.5625 -0.0625 -1.65625q-0.0625 -1.109375 -0.0625 -1.671875q0 -0.765625 0.5 -1.25q0.5 -0.484375 1.25 -0.484375q1.609375 0 1.765625 2.296875l0.0625 2.046875q2.953125 -3.9375 6.0625 -3.9375q2.8125 0 3.921875 2.484375q0.75 1.65625 0.828125 4.890625l0 1.765625l-0.03125 1.640625q0 1.453125 0.375 3.765625q0.390625 2.3125 0.390625 3.75q0 0.78125 -0.5 1.265625q-0.5 0.484375 -1.265625 0.484375zm11.715942 -0.21875q-2.953125 0 -5.078125 -2.171875q-2.375 -2.421875 -2.5 -6.53125q-0.09375 -3.96875 2.015625 -6.984375q2.453125 -3.578125 6.84375 -3.578125q3.515625 0 5.328125 3.21875q1.453125 2.609375 1.390625 6.265625q-0.046875 3.890625 -2.03125 6.65625q-2.25 3.125 -5.96875 3.125zm1.0625 -15.6875q-2.59375 -0.015625 -4.03125 2.453125q-1.140625 1.984375 -1.140625 4.53125q0 2.5625 1.390625 3.984375q1.15625 1.171875 2.71875 1.171875q1.828125 0 3.15625 -1.328125q1.484375 -1.484375 1.578125 -4.0q0.25 -6.796875 -3.671875 -6.8125zm33.365234 16.109375q-1.4375 0 -1.6875 -1.53125q-0.3125 -1.921875 -0.625 -5.4375l-0.609375 -5.453125q-0.171875 -1.21875 -0.59375 -2.375q-0.59375 -1.578125 -1.296875 -1.578125q-0.65625 0 -2.421875 1.109375q-1.6875 1.015625 -2.21875 1.625q-0.015625 1.65625 0.09375 3.3125l0.515625 4.6875q0.34375 2.78125 0.34375 4.59375q0 0.765625 -0.484375 1.265625q-0.484375 0.515625 -1.25 0.515625q-0.75 0 -1.234375 -0.515625q-0.484375 -0.5 -0.484375 -1.265625q0 -2.125 -0.4375 -6.28125q-0.421875 -4.15625 -0.421875 -6.296875q0 -1.859375 -0.53125 -2.890625q-1.21875 0.5625 -2.484375 1.828125l-2.078125 2.3125q-0.28125 0.421875 -0.90625 1.109375q0 1.0625 -0.1875 3.125q-0.1875 2.046875 -0.1875 3.03125q0 0.53125 0.15625 1.484375q0.171875 0.9375 0.171875 1.359375q0 0.71875 -0.546875 1.203125q-0.53125 0.5 -1.25 0.5q-1.984375 0 -1.984375 -4.515625q0 -1.046875 0.1875 -3.140625q0.203125 -2.09375 0.203125 -3.15625q0 -0.921875 -0.171875 -2.78125q-0.15625 -1.875 -0.15625 -2.8125q0 -4.0 1.78125 -4.0q0.6875 0 1.25 0.609375q0.578125 0.59375 0.578125 1.296875q0 0.328125 -0.09375 1.03125q-0.078125 0.703125 -0.078125 1.078125l0.03125 1.84375q0.921875 -1.890625 2.6875 -3.40625q1.78125 -1.515625 3.03125 -1.515625q2.765625 0 3.796875 2.734375q0.96875 -1.28125 2.296875 -1.921875q1.34375 -0.640625 3.0625 -0.640625q2.9375 0 4.015625 3.171875q0.203125 0.625 0.71875 4.9375q0.484375 3.015625 1.265625 10.0625q0.046875 0.703125 -0.484375 1.1875q-0.515625 0.5 -1.28125 0.5zm13.505417 -0.640625q-3.96875 0 -6.4375 -1.984375q-2.6875 -2.203125 -2.6875 -6.15625q0 -4.578125 2.21875 -7.671875q2.40625 -3.375 6.421875 -3.375q2.921875 0 4.765625 0.984375q2.265625 1.21875 2.265625 3.734375q0 1.75 -1.984375 3.203125q-0.875 0.625 -3.71875 1.96875l-6.71875 3.171875q0.984375 1.46875 2.453125 2.203125q1.46875 0.734375 3.421875 0.734375q1.203125 0 2.84375 -0.453125q2.078125 -0.578125 2.671875 -1.515625q0.59375 -0.953125 1.28125 -0.953125q0.625 0 1.09375 0.46875q0.484375 0.46875 0.484375 1.078125q0 1.953125 -3.140625 3.359375q-2.6875 1.203125 -5.234375 1.203125zm-0.484375 -16.015625q-2.140625 0 -3.5625 1.65625q-1.421875 1.65625 -2.125 5.0l5.390625 -2.5625q3.1875 -1.546875 4.546875 -2.6875q-1.515625 -1.40625 -4.25 -1.40625z" fill-rule="nonzero"></path><path fill="#000000" d="m60.786377 355.11874q-0.671875 0 -1.25 -0.5625q-5.8125 -5.75 -12.9375 -7.734375l0.140625 3.453125l0.09375 3.453125q0 0.78125 -0.515625 1.296875q-0.5 0.515625 -1.25 0.515625q-0.75 0 -1.25 -0.515625q-0.5 -0.515625 -0.5 -1.296875q0 -1.375 -0.140625 -4.125q-0.125 -2.765625 -0.125 -4.140625q0 -1.625 0.34375 -4.8125q0.359375 -3.203125 0.359375 -4.8125q0 -0.890625 -0.171875 -2.640625q-0.171875 -1.765625 -0.171875 -2.671875q0 -1.0 0.5625 -1.75q0.671875 -0.9375 1.84375 -0.84375l4.25 0.328125q2.40625 0.296875 4.046875 1.1875q7.125 3.78125 7.125 9.21875q0 2.671875 -2.421875 4.734375q-1.953125 1.65625 -4.875 2.515625q5.46875 2.9375 8.171875 6.1875q0.46875 0.5625 0.46875 1.1875q0 0.75 -0.546875 1.296875q-0.53125 0.53125 -1.25 0.53125zm-11.203125 -23.234375l-2.59375 -0.203125l0.171875 2.125q0.125 1.296875 0.125 2.125q0 1.40625 -0.234375 3.5l-0.359375 3.5q0.234375 0 0.75 0.015625q0.53125 0.015625 0.796875 0.015625q4.46875 0 6.703125 -1.203125q0.984375 -0.546875 1.828125 -1.421875q0.9375 -0.984375 0.9375 -1.671875q0 -2.4375 -2.78125 -4.546875q-2.546875 -1.9375 -5.34375 -2.234375zm24.400803 23.859375q-3.96875 0 -6.4375 -1.984375q-2.6875 -2.203125 -2.6875 -6.15625q0 -4.578125 2.21875 -7.671875q2.40625 -3.375 6.421875 -3.375q2.921875 0 4.765625 0.984375q2.265625 1.21875 2.265625 3.734375q0 1.75 -1.984375 3.203125q-0.875 0.625 -3.71875 1.96875l-6.71875 3.171875q0.984375 1.46875 2.453125 2.203125q1.46875 0.734375 3.421875 0.734375q1.203125 0 2.84375 -0.453125q2.078125 -0.578125 2.671875 -1.515625q0.59375 -0.953125 1.28125 -0.953125q0.625 0 1.09375 0.46875q0.484375 0.46875 0.484375 1.078125q0 1.953125 -3.140625 3.359375q-2.6875 1.203125 -5.234375 1.203125zm-0.484375 -16.015625q-2.140625 0 -3.5625 1.65625q-1.421875 1.65625 -2.125 5.0l5.390625 -2.5625q3.1875 -1.546875 4.546875 -2.6875q-1.515625 -1.40625 -4.25 -1.40625zm25.474411 16.359375q-0.328125 0 -1.21875 -0.765625q-0.78125 -0.71875 -1.171875 -1.28125q-1.6875 0.90625 -2.96875 1.375q-1.28125 0.46875 -2.140625 0.46875q-4.125 0 -6.0 -2.328125q-1.78125 -2.171875 -1.78125 -6.671875q0 -4.265625 2.921875 -7.28125q2.9375 -3.03125 7.0 -3.03125q1.53125 0 3.421875 0.796875q2.390625 0.984375 2.390625 2.375q0 0.46875 -0.34375 0.84375q-0.171875 0.671875 -0.28125 2.203125q-0.09375 1.515625 -0.109375 3.90625q-0.015625 2.1875 0.296875 3.453125q0.171875 0.765625 1.109375 3.09375q0.125 0.3125 0.40625 0.9375l0.109375 0.296875q0 0.703125 -0.5 1.15625q-0.484375 0.453125 -1.140625 0.453125zm-3.65625 -12.21875q0 -0.75 0.09375 -1.640625q0.09375 -0.890625 0.296875 -1.890625q-0.65625 -0.328125 -1.125 -0.484375q-0.453125 -0.15625 -0.734375 -0.15625q-2.734375 0 -4.71875 2.21875q-1.96875 2.21875 -1.96875 5.125q0 2.875 1.015625 4.328125q1.03125 1.4375 3.0625 1.4375q1.6875 0 2.859375 -0.625q0.640625 -0.328125 1.78125 -1.328125q-0.5625 -4.65625 -0.5625 -6.984375zm24.315002 -4.453125q-0.21875 2.578125 -0.21875 5.15625q0 5.859375 0.546875 8.84375q0.03125 0.25 0.03125 0.40625q0 0.703125 -0.5 1.15625q-0.484375 0.46875 -1.125 0.46875q-1.09375 0 -1.609375 -1.59375q-1.265625 0.9375 -2.625 1.40625q-1.359375 0.484375 -2.84375 0.484375q-3.640625 0 -6.03125 -2.4375q-2.453125 -2.46875 -2.453125 -6.359375q0 -4.6875 2.484375 -7.515625q2.484375 -2.828125 6.46875 -2.828125q2.03125 0 3.140625 0.625l1.65625 1.21875q0.234375 -7.40625 0.578125 -9.96875q0.21875 -1.5625 1.59375 -1.5625q1.609375 0 1.609375 1.703125q0 2.4375 -0.703125 10.796875zm-7.8125 0.453125q-2.953125 0 -4.4375 1.75q-1.46875 1.75 -1.46875 5.265625q0 2.265625 1.609375 3.90625q1.609375 1.625 3.765625 1.625q1.484375 0 2.5 -0.546875q0.59375 -0.3125 1.953125 -1.453125q0.265625 -0.234375 0.515625 -0.546875l-0.0625 -3.046875l0.015625 -2.03125l0.046875 -2.078125q-0.671875 -1.421875 -1.78125 -2.125q-1.109375 -0.71875 -2.65625 -0.71875zm22.4272 15.078125l-3.5 0l-3.484375 -0.015625q-1.21875 0 -1.71875 -0.15625q-0.890625 -0.3125 -0.890625 -1.34375q0 -1.765625 2.75 -1.765625l0.84375 0.015625l0.734375 0.03125q0 -0.84375 -0.15625 -2.484375q-0.15625 -1.65625 -0.15625 -2.484375q0 -2.234375 0.40625 -6.796875q0.390625 -4.46875 0.375 -6.796875q-2.359375 1.828125 -3.0 1.828125q-0.703125 0 -1.234375 -0.515625q-0.515625 -0.53125 -0.515625 -1.21875q0 -0.828125 1.515625 -2.015625q0.953125 -0.65625 2.6875 -2.140625q1.546875 -1.5625 2.953125 -1.5625q1.171875 0 1.171875 1.359375q0 0.40625 -0.109375 1.203125q-0.09375 0.796875 -0.09375 1.203125q0 0.578125 0.0625 1.765625q0.0625 1.171875 0.0625 1.75q0 2.0 -0.421875 5.984375q-0.421875 3.96875 -0.421875 5.953125q0 1.015625 0.140625 2.484375q0.140625 1.453125 0.15625 2.375l1.84375 -0.03125q0.734375 0 1.21875 0.484375q0.484375 0.484375 0.484375 1.203125q0 0.734375 -0.484375 1.21875q-0.484375 0.46875 -1.21875 0.46875z" fill-rule="nonzero"></path><path fill="#000000" d="m60.786377 398.11874q-0.671875 0 -1.25 -0.5625q-5.8125 -5.75 -12.9375 -7.734375l0.140625 3.453125l0.09375 3.453125q0 0.78125 -0.515625 1.296875q-0.5 0.515625 -1.25 0.515625q-0.75 0 -1.25 -0.515625q-0.5 -0.515625 -0.5 -1.296875q0 -1.375 -0.140625 -4.125q-0.125 -2.765625 -0.125 -4.140625q0 -1.625 0.34375 -4.8125q0.359375 -3.203125 0.359375 -4.8125q0 -0.890625 -0.171875 -2.640625q-0.171875 -1.765625 -0.171875 -2.671875q0 -1.0 0.5625 -1.75q0.671875 -0.9375 1.84375 -0.84375l4.25 0.328125q2.40625 0.296875 4.046875 1.1875q7.125 3.78125 7.125 9.21875q0 2.671875 -2.421875 4.734375q-1.953125 1.65625 -4.875 2.515625q5.46875 2.9375 8.171875 6.1875q0.46875 0.5625 0.46875 1.1875q0 0.75 -0.546875 1.296875q-0.53125 0.53125 -1.25 0.53125zm-11.203125 -23.234375l-2.59375 -0.203125l0.171875 2.125q0.125 1.296875 0.125 2.125q0 1.40625 -0.234375 3.5l-0.359375 3.5q0.234375 0 0.75 0.015625q0.53125 0.015625 0.796875 0.015625q4.46875 0 6.703125 -1.203125q0.984375 -0.546875 1.828125 -1.421875q0.9375 -0.984375 0.9375 -1.671875q0 -2.4375 -2.78125 -4.546875q-2.546875 -1.9375 -5.34375 -2.234375zm24.400803 23.859375q-3.96875 0 -6.4375 -1.984375q-2.6875 -2.203125 -2.6875 -6.15625q0 -4.578125 2.21875 -7.671875q2.40625 -3.375 6.421875 -3.375q2.921875 0 4.765625 0.984375q2.265625 1.21875 2.265625 3.734375q0 1.75 -1.984375 3.203125q-0.875 0.625 -3.71875 1.96875l-6.71875 3.171875q0.984375 1.46875 2.453125 2.203125q1.46875 0.734375 3.421875 0.734375q1.203125 0 2.84375 -0.453125q2.078125 -0.578125 2.671875 -1.515625q0.59375 -0.953125 1.28125 -0.953125q0.625 0 1.09375 0.46875q0.484375 0.46875 0.484375 1.078125q0 1.953125 -3.140625 3.359375q-2.6875 1.203125 -5.234375 1.203125zm-0.484375 -16.015625q-2.140625 0 -3.5625 1.65625q-1.421875 1.65625 -2.125 5.0l5.390625 -2.5625q3.1875 -1.546875 4.546875 -2.6875q-1.515625 -1.40625 -4.25 -1.40625zm25.474411 16.359375q-0.328125 0 -1.21875 -0.765625q-0.78125 -0.71875 -1.171875 -1.28125q-1.6875 0.90625 -2.96875 1.375q-1.28125 0.46875 -2.140625 0.46875q-4.125 0 -6.0 -2.328125q-1.78125 -2.171875 -1.78125 -6.671875q0 -4.265625 2.921875 -7.28125q2.9375 -3.03125 7.0 -3.03125q1.53125 0 3.421875 0.796875q2.390625 0.984375 2.390625 2.375q0 0.46875 -0.34375 0.84375q-0.171875 0.671875 -0.28125 2.203125q-0.09375 1.515625 -0.109375 3.90625q-0.015625 2.1875 0.296875 3.453125q0.171875 0.765625 1.109375 3.09375q0.125 0.3125 0.40625 0.9375l0.109375 0.296875q0 0.703125 -0.5 1.15625q-0.484375 0.453125 -1.140625 0.453125zm-3.65625 -12.21875q0 -0.75 0.09375 -1.640625q0.09375 -0.890625 0.296875 -1.890625q-0.65625 -0.328125 -1.125 -0.484375q-0.453125 -0.15625 -0.734375 -0.15625q-2.734375 0 -4.71875 2.21875q-1.96875 2.21875 -1.96875 5.125q0 2.875 1.015625 4.328125q1.03125 1.4375 3.0625 1.4375q1.6875 0 2.859375 -0.625q0.640625 -0.328125 1.78125 -1.328125q-0.5625 -4.65625 -0.5625 -6.984375zm24.315002 -4.453125q-0.21875 2.578125 -0.21875 5.15625q0 5.859375 0.546875 8.84375q0.03125 0.25 0.03125 0.40625q0 0.703125 -0.5 1.15625q-0.484375 0.46875 -1.125 0.46875q-1.09375 0 -1.609375 -1.59375q-1.265625 0.9375 -2.625 1.40625q-1.359375 0.484375 -2.84375 0.484375q-3.640625 0 -6.03125 -2.4375q-2.453125 -2.46875 -2.453125 -6.359375q0 -4.6875 2.484375 -7.515625q2.484375 -2.828125 6.46875 -2.828125q2.03125 0 3.140625 0.625l1.65625 1.21875q0.234375 -7.40625 0.578125 -9.96875q0.21875 -1.5625 1.59375 -1.5625q1.609375 0 1.609375 1.703125q0 2.4375 -0.703125 10.796875zm-7.8125 0.453125q-2.953125 0 -4.4375 1.75q-1.46875 1.75 -1.46875 5.265625q0 2.265625 1.609375 3.90625q1.609375 1.625 3.765625 1.625q1.484375 0 2.5 -0.546875q0.59375 -0.3125 1.953125 -1.453125q0.265625 -0.234375 0.515625 -0.546875l-0.0625 -3.046875l0.015625 -2.03125l0.046875 -2.078125q-0.671875 -1.421875 -1.78125 -2.125q-1.109375 -0.71875 -2.65625 -0.71875zm27.77095 15.09375q-0.4375 0 -1.234375 -0.265625q-0.796875 -0.28125 -1.21875 -0.28125q-0.90625 0 -2.703125 0.109375q-1.78125 0.109375 -2.703125 0.109375q-0.6875 0 -2.03125 0.171875q-1.34375 0.171875 -2.03125 0.171875q-0.1875 0 -0.5625 -0.0625q-0.359375 -0.078125 -0.5625 -0.078125q-1.203125 0 -1.578125 -1.171875q-0.203125 -0.609375 -0.203125 -2.109375q0 -4.09375 2.21875 -6.59375q1.03125 -1.140625 5.515625 -4.21875q2.5 -1.71875 3.34375 -2.6875q1.515625 -1.6875 1.515625 -3.953125q0 -1.125 -1.453125 -2.0q-1.28125 -0.796875 -2.515625 -0.796875q-1.625 0 -3.078125 0.9375l-2.515625 1.96875q-0.75 0.59375 -1.203125 0.59375q-1.8125 0 -1.8125 -1.4375q0 -0.828125 0.65625 -1.4375q2.0625 -1.921875 3.578125 -2.78125q2.125 -1.21875 4.375 -1.21875q2.84375 0 5.078125 1.546875q2.5 1.734375 2.5 4.46875q0 1.78125 -0.515625 3.296875q-0.5 1.515625 -1.546875 2.765625q-1.3125 1.578125 -4.46875 3.53125q-3.296875 2.078125 -4.328125 3.140625q-1.953125 2.03125 -1.921875 4.90625l3.625 -0.328125q3.71875 -0.21875 5.328125 -0.21875q1.328125 0 2.53125 0.46875q1.578125 0.609375 1.578125 1.703125q0 0.6875 -0.484375 1.21875q-0.46875 0.53125 -1.171875 0.53125z" fill-rule="nonzero"></path><path fill="#000000" d="m60.786377 441.11874q-0.671875 0 -1.25 -0.5625q-5.8125 -5.75 -12.9375 -7.734375l0.140625 3.453125l0.09375 3.453125q0 0.78125 -0.515625 1.296875q-0.5 0.515625 -1.25 0.515625q-0.75 0 -1.25 -0.515625q-0.5 -0.515625 -0.5 -1.296875q0 -1.375 -0.140625 -4.125q-0.125 -2.765625 -0.125 -4.140625q0 -1.625 0.34375 -4.8125q0.359375 -3.203125 0.359375 -4.8125q0 -0.890625 -0.171875 -2.640625q-0.171875 -1.765625 -0.171875 -2.671875q0 -1.0 0.5625 -1.75q0.671875 -0.9375 1.84375 -0.84375l4.25 0.328125q2.40625 0.296875 4.046875 1.1875q7.125 3.78125 7.125 9.21875q0 2.671875 -2.421875 4.734375q-1.953125 1.65625 -4.875 2.515625q5.46875 2.9375 8.171875 6.1875q0.46875 0.5625 0.46875 1.1875q0 0.75 -0.546875 1.296875q-0.53125 0.53125 -1.25 0.53125zm-11.203125 -23.234375l-2.59375 -0.203125l0.171875 2.125q0.125 1.296875 0.125 2.125q0 1.40625 -0.234375 3.5l-0.359375 3.5q0.234375 0 0.75 0.015625q0.53125 0.015625 0.796875 0.015625q4.46875 0 6.703125 -1.203125q0.984375 -0.546875 1.828125 -1.421875q0.9375 -0.984375 0.9375 -1.671875q0 -2.4375 -2.78125 -4.546875q-2.546875 -1.9375 -5.34375 -2.234375zm24.400803 23.859375q-3.96875 0 -6.4375 -1.984375q-2.6875 -2.203125 -2.6875 -6.15625q0 -4.578125 2.21875 -7.671875q2.40625 -3.375 6.421875 -3.375q2.921875 0 4.765625 0.984375q2.265625 1.21875 2.265625 3.734375q0 1.75 -1.984375 3.203125q-0.875 0.625 -3.71875 1.96875l-6.71875 3.171875q0.984375 1.46875 2.453125 2.203125q1.46875 0.734375 3.421875 0.734375q1.203125 0 2.84375 -0.453125q2.078125 -0.578125 2.671875 -1.515625q0.59375 -0.953125 1.28125 -0.953125q0.625 0 1.09375 0.46875q0.484375 0.46875 0.484375 1.078125q0 1.953125 -3.140625 3.359375q-2.6875 1.203125 -5.234375 1.203125zm-0.484375 -16.015625q-2.140625 0 -3.5625 1.65625q-1.421875 1.65625 -2.125 5.0l5.390625 -2.5625q3.1875 -1.546875 4.546875 -2.6875q-1.515625 -1.40625 -4.25 -1.40625zm25.474411 16.359375q-0.328125 0 -1.21875 -0.765625q-0.78125 -0.71875 -1.171875 -1.28125q-1.6875 0.90625 -2.96875 1.375q-1.28125 0.46875 -2.140625 0.46875q-4.125 0 -6.0 -2.328125q-1.78125 -2.171875 -1.78125 -6.671875q0 -4.265625 2.921875 -7.28125q2.9375 -3.03125 7.0 -3.03125q1.53125 0 3.421875 0.796875q2.390625 0.984375 2.390625 2.375q0 0.46875 -0.34375 0.84375q-0.171875 0.671875 -0.28125 2.203125q-0.09375 1.515625 -0.109375 3.90625q-0.015625 2.1875 0.296875 3.453125q0.171875 0.765625 1.109375 3.09375q0.125 0.3125 0.40625 0.9375l0.109375 0.296875q0 0.703125 -0.5 1.15625q-0.484375 0.453125 -1.140625 0.453125zm-3.65625 -12.21875q0 -0.75 0.09375 -1.640625q0.09375 -0.890625 0.296875 -1.890625q-0.65625 -0.328125 -1.125 -0.484375q-0.453125 -0.15625 -0.734375 -0.15625q-2.734375 0 -4.71875 2.21875q-1.96875 2.21875 -1.96875 5.125q0 2.875 1.015625 4.328125q1.03125 1.4375 3.0625 1.4375q1.6875 0 2.859375 -0.625q0.640625 -0.328125 1.78125 -1.328125q-0.5625 -4.65625 -0.5625 -6.984375zm24.315002 -4.453125q-0.21875 2.578125 -0.21875 5.15625q0 5.859375 0.546875 8.84375q0.03125 0.25 0.03125 0.40625q0 0.703125 -0.5 1.15625q-0.484375 0.46875 -1.125 0.46875q-1.09375 0 -1.609375 -1.59375q-1.265625 0.9375 -2.625 1.40625q-1.359375 0.484375 -2.84375 0.484375q-3.640625 0 -6.03125 -2.4375q-2.453125 -2.46875 -2.453125 -6.359375q0 -4.6875 2.484375 -7.515625q2.484375 -2.828125 6.46875 -2.828125q2.03125 0 3.140625 0.625l1.65625 1.21875q0.234375 -7.40625 0.578125 -9.96875q0.21875 -1.5625 1.59375 -1.5625q1.609375 0 1.609375 1.703125q0 2.4375 -0.703125 10.796875zm-7.8125 0.453125q-2.953125 0 -4.4375 1.75q-1.46875 1.75 -1.46875 5.265625q0 2.265625 1.609375 3.90625q1.609375 1.625 3.765625 1.625q1.484375 0 2.5 -0.546875q0.59375 -0.3125 1.953125 -1.453125q0.265625 -0.234375 0.515625 -0.546875l-0.0625 -3.046875l0.015625 -2.03125l0.046875 -2.078125q-0.671875 -1.421875 -1.78125 -2.125q-1.109375 -0.71875 -2.65625 -0.71875zm20.692825 15.875q-2.65625 0 -4.765625 -1.109375q-2.375 -1.28125 -3.203125 -3.609375q-0.109375 -0.3125 -0.109375 -0.609375q0 -0.703125 0.53125 -1.171875q0.546875 -0.46875 1.25 -0.46875q0.703125 0 1.21875 0.65625l0.796875 1.203125q0.640625 0.875 1.703125 1.3125q1.078125 0.421875 2.578125 0.421875q1.90625 0 3.359375 -1.203125q1.515625 -1.265625 1.515625 -3.09375q0 -2.65625 -1.9375 -4.234375q-1.734375 -1.375 -4.578125 -1.671875q-1.953125 -0.1875 -1.953125 -1.578125q0 -1.03125 1.53125 -1.578125l4.203125 -1.046875q1.21875 -0.4375 1.828125 -1.171875q0.609375 -0.75 0.625 -1.828125q0.046875 -1.546875 -1.1875 -2.5q-1.28125 -0.984375 -3.609375 -0.984375q-1.1875 0 -2.3125 0.578125l-1.984375 1.25q-0.578125 0.375 -0.9375 0.375q-0.703125 0 -1.203125 -0.53125q-0.5 -0.546875 -0.5 -1.234375q0 -1.390625 2.6875 -2.671875q2.34375 -1.140625 3.84375 -1.140625q3.78125 0 6.0 1.671875q2.375 1.796875 2.375 5.109375q0 4.140625 -3.34375 5.453125q-0.296875 0.125 -0.6875 0.25q2.34375 0.859375 3.5 2.578125q1.15625 1.703125 1.15625 4.28125q0 3.453125 -2.4375 5.875q-2.4375 2.421875 -5.953125 2.421875z" fill-rule="nonzero"></path><path fill="#000000" d="m60.786377 484.11874q-0.671875 0 -1.25 -0.5625q-5.8125 -5.75 -12.9375 -7.734375l0.140625 3.453125l0.09375 3.453125q0 0.78125 -0.515625 1.296875q-0.5 0.515625 -1.25 0.515625q-0.75 0 -1.25 -0.515625q-0.5 -0.515625 -0.5 -1.296875q0 -1.375 -0.140625 -4.125q-0.125 -2.765625 -0.125 -4.140625q0 -1.625 0.34375 -4.8125q0.359375 -3.203125 0.359375 -4.8125q0 -0.890625 -0.171875 -2.640625q-0.171875 -1.765625 -0.171875 -2.671875q0 -1.0 0.5625 -1.75q0.671875 -0.9375 1.84375 -0.84375l4.25 0.328125q2.40625 0.296875 4.046875 1.1875q7.125 3.78125 7.125 9.21875q0 2.671875 -2.421875 4.734375q-1.953125 1.65625 -4.875 2.515625q5.46875 2.9375 8.171875 6.1875q0.46875 0.5625 0.46875 1.1875q0 0.75 -0.546875 1.296875q-0.53125 0.53125 -1.25 0.53125zm-11.203125 -23.234375l-2.59375 -0.203125l0.171875 2.125q0.125 1.296875 0.125 2.125q0 1.40625 -0.234375 3.5l-0.359375 3.5q0.234375 0 0.75 0.015625q0.53125 0.015625 0.796875 0.015625q4.46875 0 6.703125 -1.203125q0.984375 -0.546875 1.828125 -1.421875q0.9375 -0.984375 0.9375 -1.671875q0 -2.4375 -2.78125 -4.546875q-2.546875 -1.9375 -5.34375 -2.234375zm24.400803 23.859375q-3.96875 0 -6.4375 -1.984375q-2.6875 -2.203125 -2.6875 -6.15625q0 -4.578125 2.21875 -7.671875q2.40625 -3.375 6.421875 -3.375q2.921875 0 4.765625 0.984375q2.265625 1.21875 2.265625 3.734375q0 1.75 -1.984375 3.203125q-0.875 0.625 -3.71875 1.96875l-6.71875 3.171875q0.984375 1.46875 2.453125 2.203125q1.46875 0.734375 3.421875 0.734375q1.203125 0 2.84375 -0.453125q2.078125 -0.578125 2.671875 -1.515625q0.59375 -0.953125 1.28125 -0.953125q0.625 0 1.09375 0.46875q0.484375 0.46875 0.484375 1.078125q0 1.953125 -3.140625 3.359375q-2.6875 1.203125 -5.234375 1.203125zm-0.484375 -16.015625q-2.140625 0 -3.5625 1.65625q-1.421875 1.65625 -2.125 5.0l5.390625 -2.5625q3.1875 -1.546875 4.546875 -2.6875q-1.515625 -1.40625 -4.25 -1.40625zm25.474411 16.359375q-0.328125 0 -1.21875 -0.765625q-0.78125 -0.71875 -1.171875 -1.28125q-1.6875 0.90625 -2.96875 1.375q-1.28125 0.46875 -2.140625 0.46875q-4.125 0 -6.0 -2.328125q-1.78125 -2.171875 -1.78125 -6.671875q0 -4.265625 2.921875 -7.28125q2.9375 -3.03125 7.0 -3.03125q1.53125 0 3.421875 0.796875q2.390625 0.984375 2.390625 2.375q0 0.46875 -0.34375 0.84375q-0.171875 0.671875 -0.28125 2.203125q-0.09375 1.515625 -0.109375 3.90625q-0.015625 2.1875 0.296875 3.453125q0.171875 0.765625 1.109375 3.09375q0.125 0.3125 0.40625 0.9375l0.109375 0.296875q0 0.703125 -0.5 1.15625q-0.484375 0.453125 -1.140625 0.453125zm-3.65625 -12.21875q0 -0.75 0.09375 -1.640625q0.09375 -0.890625 0.296875 -1.890625q-0.65625 -0.328125 -1.125 -0.484375q-0.453125 -0.15625 -0.734375 -0.15625q-2.734375 0 -4.71875 2.21875q-1.96875 2.21875 -1.96875 5.125q0 2.875 1.015625 4.328125q1.03125 1.4375 3.0625 1.4375q1.6875 0 2.859375 -0.625q0.640625 -0.328125 1.78125 -1.328125q-0.5625 -4.65625 -0.5625 -6.984375zm24.315002 -4.453125q-0.21875 2.578125 -0.21875 5.15625q0 5.859375 0.546875 8.84375q0.03125 0.25 0.03125 0.40625q0 0.703125 -0.5 1.15625q-0.484375 0.46875 -1.125 0.46875q-1.09375 0 -1.609375 -1.59375q-1.265625 0.9375 -2.625 1.40625q-1.359375 0.484375 -2.84375 0.484375q-3.640625 0 -6.03125 -2.4375q-2.453125 -2.46875 -2.453125 -6.359375q0 -4.6875 2.484375 -7.515625q2.484375 -2.828125 6.46875 -2.828125q2.03125 0 3.140625 0.625l1.65625 1.21875q0.234375 -7.40625 0.578125 -9.96875q0.21875 -1.5625 1.59375 -1.5625q1.609375 0 1.609375 1.703125q0 2.4375 -0.703125 10.796875zm-7.8125 0.453125q-2.953125 0 -4.4375 1.75q-1.46875 1.75 -1.46875 5.265625q0 2.265625 1.609375 3.90625q1.609375 1.625 3.765625 1.625q1.484375 0 2.5 -0.546875q0.59375 -0.3125 1.953125 -1.453125q0.265625 -0.234375 0.515625 -0.546875l-0.0625 -3.046875l0.015625 -2.03125l0.046875 -2.078125q-0.671875 -1.421875 -1.78125 -2.125q-1.109375 -0.71875 -2.65625 -0.71875zm27.005325 7.375l0 6.515625q0 1.625 -1.609375 1.625q-1.859375 0 -1.859375 -2.546875q0 -0.3125 0.03125 -0.890625q0.03125 -0.578125 0.03125 -0.796875l-0.015625 -3.984375l-7.75 -0.203125q-2.40625 0 -3.34375 -0.15625q-1.59375 -0.265625 -1.59375 -1.25q0 -0.78125 0.96875 -2.0l1.515625 -1.796875l8.640625 -12.609375q1.1875 -1.640625 2.984375 -1.640625q2.0 0 2.0 1.71875l0 14.609375q0.296875 -0.015625 0.71875 -0.015625q3.234375 0 3.234375 1.734375q0 1.265625 -1.34375 1.609375q-0.59375 0.15625 -2.609375 0.078125zm-3.421875 -14.859375q-4.6875 7.484375 -7.328125 11.203125l7.328125 0.1875l0 -11.390625z" fill-rule="nonzero"></path><path fill="#000000" d="m60.786377 527.1187q-0.671875 0 -1.25 -0.5625q-5.8125 -5.75 -12.9375 -7.734375l0.140625 3.453125l0.09375 3.453125q0 0.78125 -0.515625 1.296875q-0.5 0.515625 -1.25 0.515625q-0.75 0 -1.25 -0.515625q-0.5 -0.515625 -0.5 -1.296875q0 -1.375 -0.140625 -4.125q-0.125 -2.765625 -0.125 -4.140625q0 -1.625 0.34375 -4.8125q0.359375 -3.2030945 0.359375 -4.8124695q0 -0.890625 -0.171875 -2.640625q-0.171875 -1.765625 -0.171875 -2.671875q0 -1.0 0.5625 -1.75q0.671875 -0.9375 1.84375 -0.84375l4.25 0.328125q2.40625 0.296875 4.046875 1.1875q7.125 3.78125 7.125 9.21875q0 2.6718445 -2.421875 4.7343445q-1.953125 1.65625 -4.875 2.515625q5.46875 2.9375 8.171875 6.1875q0.46875 0.5625 0.46875 1.1875q0 0.75 -0.546875 1.296875q-0.53125 0.53125 -1.25 0.53125zm-11.203125 -23.234344l-2.59375 -0.203125l0.171875 2.125q0.125 1.296875 0.125 2.125q0 1.40625 -0.234375 3.5l-0.359375 3.4999695q0.234375 0 0.75 0.015625q0.53125 0.015625 0.796875 0.015625q4.46875 0 6.703125 -1.203125q0.984375 -0.546875 1.828125 -1.421875q0.9375 -0.9843445 0.9375 -1.6718445q0 -2.4375 -2.78125 -4.546875q-2.546875 -1.9375 -5.34375 -2.234375zm24.400803 23.859344q-3.96875 0 -6.4375 -1.984375q-2.6875 -2.203125 -2.6875 -6.15625q0 -4.578125 2.21875 -7.6718445q2.40625 -3.375 6.421875 -3.375q2.921875 0 4.765625 0.984375q2.265625 1.21875 2.265625 3.7343445q0 1.75 -1.984375 3.203125q-0.875 0.625 -3.71875 1.96875l-6.71875 3.171875q0.984375 1.46875 2.453125 2.203125q1.46875 0.734375 3.421875 0.734375q1.203125 0 2.84375 -0.453125q2.078125 -0.578125 2.671875 -1.515625q0.59375 -0.953125 1.28125 -0.953125q0.625 0 1.09375 0.46875q0.484375 0.46875 0.484375 1.078125q0 1.953125 -3.140625 3.359375q-2.6875 1.203125 -5.234375 1.203125zm-0.484375 -16.015594q-2.140625 0 -3.5625 1.6562195q-1.421875 1.65625 -2.125 5.0l5.390625 -2.5625q3.1875 -1.546875 4.546875 -2.6875q-1.515625 -1.4062195 -4.25 -1.4062195zm25.474411 16.359344q-0.328125 0 -1.21875 -0.765625q-0.78125 -0.71875 -1.171875 -1.28125q-1.6875 0.90625 -2.96875 1.375q-1.28125 0.46875 -2.140625 0.46875q-4.125 0 -6.0 -2.328125q-1.78125 -2.171875 -1.78125 -6.671875q0 -4.265625 2.921875 -7.2812195q2.9375 -3.03125 7.0 -3.03125q1.53125 0 3.421875 0.796875q2.390625 0.984375 2.390625 2.375q0 0.46871948 -0.34375 0.8437195q-0.171875 0.671875 -0.28125 2.203125q-0.09375 1.515625 -0.109375 3.90625q-0.015625 2.1875 0.296875 3.453125q0.171875 0.765625 1.109375 3.09375q0.125 0.3125 0.40625 0.9375l0.109375 0.296875q0 0.703125 -0.5 1.15625q-0.484375 0.453125 -1.140625 0.453125zm-3.65625 -12.21875q0 -0.75 0.09375 -1.640625q0.09375 -0.890625 0.296875 -1.890625q-0.65625 -0.328125 -1.125 -0.48434448q-0.453125 -0.15625 -0.734375 -0.15625q-2.734375 0 -4.71875 2.2187195q-1.96875 2.21875 -1.96875 5.125q0 2.875 1.015625 4.328125q1.03125 1.4375 3.0625 1.4375q1.6875 0 2.859375 -0.625q0.640625 -0.328125 1.78125 -1.328125q-0.5625 -4.65625 -0.5625 -6.984375zm24.315002 -4.4530945q-0.21875 2.5780945 -0.21875 5.1562195q0 5.859375 0.546875 8.84375q0.03125 0.25 0.03125 0.40625q0 0.703125 -0.5 1.15625q-0.484375 0.46875 -1.125 0.46875q-1.09375 0 -1.609375 -1.59375q-1.265625 0.9375 -2.625 1.40625q-1.359375 0.484375 -2.84375 0.484375q-3.640625 0 -6.03125 -2.4375q-2.453125 -2.46875 -2.453125 -6.359375q0 -4.6875 2.484375 -7.5155945q2.484375 -2.828125 6.46875 -2.828125q2.03125 0 3.140625 0.625l1.65625 1.21875q0.234375 -7.40625 0.578125 -9.96875q0.21875 -1.5625 1.59375 -1.5625q1.609375 0 1.609375 1.703125q0 2.4375 -0.703125 10.796875zm-7.8125 0.453125q-2.953125 0 -4.4375 1.7499695q-1.46875 1.75 -1.46875 5.265625q0 2.265625 1.609375 3.90625q1.609375 1.625 3.765625 1.625q1.484375 0 2.5 -0.546875q0.59375 -0.3125 1.953125 -1.453125q0.265625 -0.234375 0.515625 -0.546875l-0.0625 -3.046875l0.015625 -2.03125l0.046875 -2.078125q-0.671875 -1.421875 -1.78125 -2.125q-1.109375 -0.7187195 -2.65625 -0.7187195zm19.9272 16.171844q-4.984375 0 -7.34375 -3.6875q-0.3125 -0.515625 -0.3125 -0.984375q0 -0.6875 0.546875 -1.1875q0.546875 -0.5 1.21875 -0.5q0.734375 0 1.375 0.765625q0.9375 1.125 1.40625 1.4375q1.140625 0.78125 3.109375 0.78125q3.046875 0 5.046875 -2.328125q1.921875 -2.203125 1.921875 -5.328125q0 -2.5625 -0.84375 -4.15625q-1.09375 -2.0312195 -3.359375 -2.0312195q-1.875 0 -3.078125 0.515625q-0.953125 0.40625 -1.921875 1.3905945l-1.90625 2.09375q-0.78125 0.78125 -1.578125 0.78125q-0.703125 0 -1.203125 -0.5q-0.484375 -0.5 -0.484375 -1.203125q0 -0.34375 0.28125 -3.1249695q0.59375 -5.53125 0.59375 -7.28125q0 -0.609375 -0.3125 -1.328125q-0.3125 -0.734375 -0.3125 -1.09375q0 -1.078125 1.859375 -1.078125q0.34375 0 1.046875 0.0625q0.71875 0.0625 1.078125 0.0625q1.015625 0 3.046875 -0.0625q2.046875 -0.078125 3.0625 -0.078125q0.484375 0 1.4375 0.046875q0.96875 0.03125 1.453125 0.03125q0.328125 0 0.953125 -0.125q0.640625 -0.140625 0.953125 -0.140625q0.6875 0 1.21875 0.515625q0.53125 0.5 0.53125 1.171875q0 1.96875 -4.171875 1.96875q-0.546875 0 -1.375 -0.03125q-0.828125 -0.046875 -1.0 -0.046875l-2.96875 0.0625l-2.96875 0.078125q0 0.796875 -0.65625 5.859375q2.40625 -1.921875 6.421875 -1.921875q3.859375 0 5.90625 3.03125q1.71875 2.5624695 1.71875 6.5312195q0 4.75 -2.78125 7.828125q-2.875 3.203125 -7.609375 3.203125z" fill-rule="nonzero"></path><path fill="#000000" fill-opacity="0.0" d="m369.71915 346.98688l73.66931 0" fill-rule="nonzero"></path><path stroke="#ff0000" stroke-width="2.0" stroke-linejoin="round" stroke-linecap="butt" d="m369.71915 346.98688l61.66931 0" fill-rule="evenodd"></path><path fill="#ff0000" stroke="#ff0000" stroke-width="2.0" stroke-linecap="butt" d="m431.38846 350.29034l9.076202 -3.3034668l-9.076202 -3.3034668z" fill-rule="evenodd"></path><path fill="#000000" fill-opacity="0.0" d="m523.3884 394.98688l-73.66928 0" fill-rule="nonzero"></path><path stroke="#0000ff" stroke-width="2.0" stroke-linejoin="round" stroke-linecap="butt" d="m523.3884 394.98688l-61.66928 0" fill-rule="evenodd"></path><path fill="#0000ff" stroke="#0000ff" stroke-width="2.0" stroke-linecap="butt" d="m461.71915 391.6834l-9.076172 3.3034668l9.076172 3.3034668z" fill-rule="evenodd"></path><path fill="#000000" fill-opacity="0.0" d="m425.71915 434.98688l73.66931 0" fill-rule="nonzero"></path><path stroke="#ff0000" stroke-width="2.0" stroke-linejoin="round" stroke-linecap="butt" d="m425.71915 434.98688l61.66931 0" fill-rule="evenodd"></path><path fill="#ff0000" stroke="#ff0000" stroke-width="2.0" stroke-linecap="butt" d="m487.38846 438.29034l9.076202 -3.3034668l-9.076202 -3.3034668z" fill-rule="evenodd"></path><path fill="#000000" fill-opacity="0.0" d="m457.71915 474.98688l73.66928 0" fill-rule="nonzero"></path><path stroke="#ff0000" stroke-width="2.0" stroke-linejoin="round" stroke-linecap="butt" d="m457.71915 474.98688l61.66928 0" fill-rule="evenodd"></path><path fill="#ff0000" stroke="#ff0000" stroke-width="2.0" stroke-linecap="butt" d="m519.3884 478.29034l9.076233 -3.3034668l-9.076233 -3.3034668z" fill-rule="evenodd"></path><path fill="#000000" fill-opacity="0.0" d="m365.81104 225.06299l336.56696 0" fill-rule="nonzero"></path><path stroke="#073763" stroke-width="2.0" stroke-linejoin="round" stroke-linecap="butt" d="m365.81104 225.06299l336.56696 0" fill-rule="nonzero"></path><path fill="#000000" fill-opacity="0.0" d="m499.38846 523.59845l73.66928 0" fill-rule="nonzero"></path><path stroke="#ff0000" stroke-width="2.0" stroke-linejoin="round" stroke-linecap="butt" d="m499.38846 523.59845l61.66928 0" fill-rule="evenodd"></path><path fill="#ff0000" stroke="#ff0000" stroke-width="2.0" stroke-linecap="butt" d="m561.05774 526.9019l9.076172 -3.3034668l-9.076172 -3.3034668z" fill-rule="evenodd"></path><path fill="#000000" fill-opacity="0.0" d="m-110.485565 632.2257l589.2599 0l0 68.75592l-589.2599 0z" fill-rule="nonzero"></path></g></svg>

